<?xml version="1.0" standalone="no"?>
<!DOCTYPE svg PUBLIC "-//W3C//DTD SVG 20010904//EN"
 "http://www.w3.org/TR/2001/REC-SVG-20010904/DTD/svg10.dtd">
<svg version="1.0" xmlns="http://www.w3.org/2000/svg"
 width="72.000000pt" height="72.000000pt" viewBox="0 0 72.000000 72.000000"
 preserveAspectRatio="xMidYMid meet">
<metadata>
Created by potrace 1.14, written by Peter Selinger 2001-2017
</metadata>
<g transform="translate(0.000000,72.000000) scale(0.100000,-0.100000)"
fill="#000000" stroke="none">
<path d="M220 539 c12 -8 9 -10 -12 -6 -16 2 -26 0 -25 -7 1 -6 -4 -10 -12 -8
-12 3 -12 0 -1 -13 11 -13 10 -15 -4 -9 -11 4 -16 2 -14 -7 2 -8 -2 -13 -8
-12 -10 2 -14 -10 -15 -49 0 -10 -4 -18 -9 -18 -5 0 -7 -6 -4 -14 3 -8 -5 -22
-18 -31 -13 -10 -16 -15 -7 -12 12 4 14 -1 11 -24 -3 -18 -10 -29 -21 -29 -14
0 -14 -2 -1 -10 13 -8 13 -10 1 -10 -11 0 -12 -3 -4 -11 14 -14 5 -41 -11 -32
-7 4 -7 1 1 -9 7 -8 9 -19 5 -23 -4 -5 -1 -4 7 0 11 6 13 4 8 -8 -4 -10 -2
-16 6 -14 7 1 11 -3 10 -8 -2 -12 37 -12 57 0 9 5 11 4 6 -3 -14 -22 3 -12 51
33 26 25 44 45 40 45 -5 0 -2 7 7 15 18 18 30 20 20 3 -4 -7 2 -5 14 6 14 12
31 17 51 14 17 -2 28 -1 25 4 -7 10 49 -2 56 -12 3 -4 19 -6 35 -5 17 2 24 1
17 -2 -10 -4 -7 -9 8 -20 18 -12 19 -17 9 -25 -11 -6 -9 -8 6 -6 12 2 19 -2
17 -10 -1 -6 4 -11 10 -10 7 2 13 -4 12 -12 -1 -10 9 -15 29 -16 16 -1 33 -7
38 -15 6 -10 9 -10 9 -1 0 6 6 12 14 12 8 0 18 9 21 20 4 11 10 18 15 15 8 -5
-4 63 -14 72 -3 4 0 13 7 21 6 9 7 13 2 10 -6 -4 -15 5 -22 18 -6 13 -8 22 -4
19 4 -2 8 2 8 10 0 8 -4 12 -9 9 -4 -3 -8 6 -8 20 0 14 -5 26 -11 26 -6 0 -8
8 -4 19 3 12 0 21 -10 25 -9 3 -13 10 -10 16 3 6 -1 13 -9 16 -9 3 -16 15 -16
26 0 14 -5 18 -16 14 -8 -3 -13 -2 -10 2 3 5 -12 8 -33 8 -29 -1 -37 -5 -33
-15 4 -10 1 -13 -11 -8 -11 4 -14 2 -10 -9 8 -21 -16 -47 -32 -34 -9 8 -15 7
-18 -2 -4 -10 -8 -10 -17 2 -10 13 -11 12 -6 -4 5 -15 2 -17 -16 -12 -13 3
-27 6 -31 6 -5 0 -5 6 -1 13 6 9 4 9 -8 -1 -14 -11 -19 -10 -32 9 -8 12 -13
26 -10 31 3 5 0 7 -8 6 -7 -2 -12 2 -11 9 2 7 -3 10 -11 7 -8 -3 -17 -1 -21 5
-3 6 -12 11 -18 11 -7 0 -6 -4 3 -11z m125 -109 c-3 -5 -14 -10 -23 -9 -14 0
-13 2 3 9 27 11 27 11 20 0z m31 -2 c-1 -7 -5 -18 -9 -24 -4 -7 0 -15 9 -18 9
-4 13 -2 8 5 -5 8 -1 8 13 0 11 -6 24 -7 28 -3 5 4 5 1 1 -6 -4 -7 -11 -10
-16 -7 -5 3 -15 -4 -22 -14 -14 -19 -15 -19 -42 -2 -15 10 -23 21 -18 25 5 3
12 -1 16 -9 3 -8 13 -14 23 -14 17 1 17 2 1 6 -19 5 -24 24 -10 37 4 4 8 12 8
17 2 15 4 19 8 19 2 0 3 -6 2 -12z m34 -2 c0 -3 -4 -8 -10 -11 -5 -3 -10 -1
-10 4 0 6 5 11 10 11 6 0 10 -2 10 -4z m-225 -34 c-3 -3 -11 0 -18 7 -9 10 -8
11 6 5 10 -3 15 -9 12 -12z m61 -69 c2 -9 -5 -23 -14 -31 -12 -9 -13 -12 -2
-7 8 4 6 -1 -4 -9 -11 -9 -16 -16 -11 -16 5 0 0 -7 -11 -16 -10 -8 -13 -12 -5
-8 10 5 12 3 7 -5 -6 -9 -11 -9 -24 1 -13 11 -14 11 -7 -1 5 -9 2 -18 -10 -27
-28 -21 -53 -1 -53 41 0 22 4 33 11 28 5 -3 7 -2 4 4 -3 5 -3 23 2 39 5 20 14
29 29 30 12 1 19 -2 17 -6 -6 -9 35 -18 53 -12 10 3 10 7 0 20 -10 14 -10 15
2 5 8 -7 15 -20 16 -30z m362 -1 c-11 -13 -11 -15 4 -10 12 5 16 1 13 -18 -1
-13 3 -24 8 -24 7 0 7 -4 -1 -12 -7 -7 -12 -17 -12 -23 0 -5 5 -3 10 5 8 12 9
10 7 -9 -6 -38 -57 -37 -96 3 -29 30 -61 94 -41 81 6 -3 10 -1 10 4 0 6 5 11
11 11 5 0 7 -6 3 -12 -5 -9 -2 -9 9 1 9 7 17 10 17 6 0 -4 7 -2 15 5 8 7 15 9
15 4 0 -4 5 -3 12 4 17 17 31 3 16 -16z"/>
<path d="M145 210 c-3 -6 1 -7 9 -4 18 7 21 14 7 14 -6 0 -13 -4 -16 -10z"/>
<path d="M536 261 c-3 -4 7 -19 22 -32 l27 -24 -23 26 c-12 14 -19 29 -15 32
3 4 4 7 0 7 -3 0 -8 -4 -11 -9z"/>
</g>
</svg>
